<svg version="1.1" id="Layer_1" xmlns="http://www.w3.org/2000/svg" xmlns:xlink="http://www.w3.org/1999/xlink" x="0px" y="0px"
	 width="100%" viewBox="0 0 500 500" enable-background="new 0 0 500 500" xml:space="preserve">
<path fill="#000000" opacity="1.000000" stroke="none" 
	d="
M278.000000,501.000000 
	C185.333359,501.000000 93.166710,501.000000 1.000049,501.000000 
	C1.000033,334.333405 1.000033,167.666794 1.000016,1.000139 
	C167.666565,1.000093 334.333130,1.000093 500.999756,1.000046 
	C500.999847,167.666519 500.999847,334.333038 500.999939,500.999786 
	C426.833344,501.000000 352.666656,501.000000 278.000000,501.000000 
M82.012329,136.986496 
	C82.012329,136.986496 81.883881,136.983627 81.988617,137.659103 
	C82.645187,138.470047 83.301758,139.280975 83.959084,140.022247 
	C83.959084,140.022247 83.889503,140.026230 84.032898,140.514297 
	C84.310471,140.684021 84.588036,140.853729 85.146164,141.662003 
	C100.446053,163.222794 115.728806,184.795776 131.052841,206.339401 
	C139.052872,217.586365 147.125549,228.781662 155.006729,240.635498 
	C155.313736,241.111908 155.620728,241.588318 155.941681,241.976669 
	C155.941681,241.976669 155.853531,241.963348 155.986633,242.898727 
	C155.991150,271.559143 156.058975,300.219879 155.921555,328.879608 
	C155.903992,332.539520 154.816208,336.194305 154.029129,340.420654 
	C154.052094,340.619904 154.075043,340.819183 154.023438,341.526031 
	C154.300797,341.691345 154.578171,341.856659 155.305405,342.789642 
	C170.731903,342.865540 186.158401,342.950378 201.584991,342.977081 
	C202.083847,342.977966 202.583725,342.384552 203.787277,342.031586 
	C204.230713,341.361237 204.674149,340.690857 205.747040,339.653534 
	C210.168777,327.140015 214.590500,314.626526 219.651428,301.903229 
	C219.807922,301.264404 219.964432,300.625580 219.951477,299.959961 
	C219.951477,299.959961 219.923538,300.129242 220.861801,299.964355 
	C230.529968,299.927673 240.198135,299.890991 250.814041,299.971375 
	C265.579498,299.980560 280.345337,300.043518 295.110077,299.945587 
	C297.551422,299.929413 299.037598,300.445435 299.887207,302.938416 
	C304.220856,315.655518 308.682617,328.329010 313.370239,341.852234 
	C330.440552,341.852234 347.510864,341.852234 365.086395,341.852234 
	C364.243134,340.572235 363.652313,339.675415 363.084808,338.029724 
	C359.554718,329.334503 356.021912,320.640381 352.495178,311.943817 
	C347.289581,299.107422 342.071350,286.276093 336.889404,273.430145 
	C330.266449,257.011993 323.688660,240.575638 317.064758,224.157867 
	C310.734955,208.469101 304.398468,192.782913 298.014069,177.116318 
	C292.004364,162.369125 285.928253,147.649002 279.971832,132.048416 
	C279.184662,131.698242 278.398651,131.045486 277.610199,131.042542 
	C261.680695,130.983337 245.750366,130.936493 229.821960,131.081696 
	C227.931503,131.098907 226.051331,132.247604 223.915680,133.557343 
	C209.369308,156.759750 194.822922,179.962158 179.829330,203.877899 
	C176.267624,197.953125 173.173859,192.666321 169.943954,187.464020 
	C163.785126,177.544235 157.565079,167.662277 151.339233,157.784286 
	C146.194260,149.621246 141.004288,141.486557 135.898773,132.467209 
	C134.938324,131.977615 133.979874,131.065613 133.017105,131.061035 
	C115.149445,130.975662 97.281258,130.998428 78.117622,130.998428 
	C79.336906,133.172546 80.156830,134.634552 80.978836,136.013092 
	C80.978836,136.013092 80.895348,136.011459 81.061516,136.553711 
	C81.377617,136.740784 81.693718,136.927856 82.012329,136.986496 
z"/>
<path fill="#879089" opacity="1.000000" stroke="none" 
	d="
M154.097992,341.018433 
	C154.075043,340.819183 154.052094,340.619904 154.416092,339.965485 
	C155.607483,337.826965 156.411911,336.143585 157.417358,334.221680 
	C177.093750,286.101257 196.597092,238.230667 216.030746,190.331818 
	C223.839188,171.086014 231.494629,151.778122 239.580780,132.347687 
	C251.997177,132.133606 264.052521,132.042969 276.107819,132.047729 
	C277.365784,132.048218 278.623505,132.613647 279.881348,132.916977 
	C285.928253,147.649002 292.004364,162.369125 298.014069,177.116318 
	C304.398468,192.782913 310.734955,208.469101 317.064758,224.157867 
	C323.688660,240.575638 330.266449,257.011993 336.889404,273.430145 
	C342.071350,286.276093 347.289581,299.107422 352.495178,311.943817 
	C356.021912,320.640381 359.554718,329.334503 362.893463,338.759796 
	C360.712677,339.963379 358.727295,340.827148 356.733154,340.847961 
	C342.189606,340.999695 327.644287,340.981964 313.099548,341.017761 
	C308.682617,328.329010 304.220856,315.655518 299.887207,302.938416 
	C299.037598,300.445435 297.551422,299.929413 295.110077,299.945587 
	C280.345337,300.043518 265.579498,299.980560 250.012100,299.685242 
	C243.453018,299.294952 237.693085,299.035889 231.939697,299.139618 
	C227.929657,299.211914 223.928604,299.781677 219.923538,300.129211 
	C219.923538,300.129242 219.951477,299.959961 219.709656,300.079041 
	C219.315964,300.836395 219.164108,301.474701 219.012238,302.113007 
	C214.590500,314.626526 210.168777,327.140015 205.031494,339.974670 
	C202.021744,340.540009 199.728394,340.985809 197.433182,340.995575 
	C182.988342,341.057159 168.543106,341.021759 154.097992,341.018433 
M284.945282,260.730164 
	C285.131256,260.542480 285.196991,260.311951 284.808472,259.358032 
	C276.251465,235.910156 267.694427,212.462280 259.086243,188.874191 
	C250.606125,212.692551 242.088715,236.615662 233.365417,261.117035 
	C248.186905,261.117035 262.610107,261.117035 277.533813,261.474823 
	C278.678162,261.355408 279.822540,261.235962 281.649597,260.965607 
	C282.110138,261.016388 282.570648,261.067200 283.263916,261.224396 
	C283.263916,261.224396 283.622223,261.264160 283.622223,261.264160 
	C283.622223,261.264160 283.970886,261.115387 284.372192,260.960358 
	C284.372192,260.960358 284.802307,260.950287 284.945282,260.730164 
z"/>
<path fill="#F2DA03" opacity="1.000000" stroke="none" 
	d="
M239.219696,132.498474 
	C231.494629,151.778122 223.839188,171.086014 216.030746,190.331818 
	C196.597092,238.230667 177.093750,286.101257 157.373352,333.797791 
	C157.108887,304.813660 157.110626,276.014832 157.018112,247.216324 
	C157.012482,245.464111 156.259033,243.714279 155.853531,241.963348 
	C155.853531,241.963348 155.941681,241.976669 156.279068,241.830093 
	C156.132767,241.122437 155.649094,240.561371 155.165405,240.000290 
	C147.125549,228.781662 139.052872,217.586365 131.052841,206.339401 
	C115.728806,184.795776 100.446053,163.222794 85.003181,140.991943 
	C84.536629,140.223328 84.213066,140.124786 83.889503,140.026230 
	C83.889503,140.026230 83.959084,140.022247 84.220001,139.751450 
	C83.615250,138.648300 82.749565,137.815964 81.883881,136.983627 
	C81.883881,136.983627 82.012329,136.986496 82.078049,136.649796 
	C81.727638,136.212555 81.311493,136.112000 80.895348,136.011444 
	C80.895348,136.011459 80.978836,136.013092 81.246582,135.657013 
	C80.385536,131.112167 83.778351,132.595093 85.314049,132.582596 
	C100.545769,132.458542 115.778999,132.482101 131.011475,132.542953 
	C132.620102,132.549393 134.226700,133.061691 135.834244,133.339325 
	C141.004288,141.486557 146.194260,149.621246 151.339233,157.784286 
	C157.565079,167.662277 163.785126,177.544235 169.943954,187.464020 
	C173.173859,192.666321 176.267624,197.953125 179.829330,203.877899 
	C194.822922,179.962158 209.369308,156.759750 224.495911,133.167267 
	C229.790665,132.684296 234.505173,132.591385 239.219696,132.498474 
z"/>
<path fill="#EFEBEB" opacity="1.000000" stroke="none" 
	d="
M135.866516,132.903259 
	C134.226700,133.061691 132.620102,132.549393 131.011475,132.542953 
	C115.778999,132.482101 100.545769,132.458542 85.314049,132.582596 
	C83.778351,132.595093 80.385536,131.112167 81.245529,135.698761 
	C80.156830,134.634552 79.336906,133.172546 78.117622,130.998428 
	C97.281258,130.998428 115.149445,130.975662 133.017105,131.061035 
	C133.979874,131.065613 134.938324,131.977615 135.866516,132.903259 
z"/>
<path fill="#EFEBEB" opacity="1.000000" stroke="none" 
	d="
M155.920074,242.431030 
	C156.259033,243.714279 157.012482,245.464111 157.018112,247.216324 
	C157.110626,276.014832 157.108887,304.813660 157.172333,334.036316 
	C156.411911,336.143585 155.607483,337.826965 154.513641,339.680908 
	C154.816208,336.194305 155.903992,332.539520 155.921555,328.879608 
	C156.058975,300.219879 155.991150,271.559143 155.920074,242.431030 
z"/>
<path fill="#EFEBEB" opacity="1.000000" stroke="none" 
	d="
M239.580765,132.347687 
	C234.505173,132.591385 229.790665,132.684296 224.621277,132.824509 
	C226.051331,132.247604 227.931503,131.098907 229.821960,131.081696 
	C245.750366,130.936493 261.680695,130.983337 277.610199,131.042542 
	C278.398651,131.045486 279.184662,131.698242 279.926575,132.482697 
	C278.623505,132.613647 277.365784,132.048218 276.107819,132.047729 
	C264.052521,132.042969 251.997177,132.133606 239.580765,132.347687 
z"/>
<path fill="#A0A7A1" opacity="1.000000" stroke="none" 
	d="
M313.234894,341.434998 
	C327.644287,340.981964 342.189606,340.999695 356.733154,340.847961 
	C358.727295,340.827148 360.712677,339.963379 362.881775,339.134216 
	C363.652313,339.675415 364.243134,340.572235 365.086395,341.852234 
	C347.510864,341.852234 330.440552,341.852234 313.234894,341.434998 
z"/>
<path fill="#A0A7A1" opacity="1.000000" stroke="none" 
	d="
M154.060715,341.272217 
	C168.543106,341.021759 182.988342,341.057159 197.433182,340.995575 
	C199.728394,340.985809 202.021744,340.540009 204.716766,340.158142 
	C204.674149,340.690857 204.230713,341.361237 202.963531,342.012543 
	C186.378372,342.002991 170.616943,342.012482 154.855530,342.021973 
	C154.578171,341.856659 154.300797,341.691345 154.060715,341.272217 
z"/>
<path fill="#EFEBEB" opacity="1.000000" stroke="none" 
	d="
M155.080475,342.405823 
	C170.616943,342.012482 186.378372,342.002991 202.611450,342.030823 
	C202.583725,342.384552 202.083847,342.977966 201.584991,342.977081 
	C186.158401,342.950378 170.731903,342.865540 155.080475,342.405823 
z"/>
<path fill="#EFEBEB" opacity="1.000000" stroke="none" 
	d="
M220.392670,300.046783 
	C223.928604,299.781677 227.929657,299.211914 231.939697,299.139618 
	C237.693085,299.035889 243.453018,299.294952 249.538239,299.626709 
	C240.198135,299.890991 230.529968,299.927673 220.392670,300.046783 
z"/>
<path fill="#EFEBEB" opacity="1.000000" stroke="none" 
	d="
M81.936249,137.321365 
	C82.749565,137.815964 83.615250,138.648300 84.219627,139.786285 
	C83.301758,139.280975 82.645187,138.470047 81.936249,137.321365 
z"/>
<path fill="#EFEBEB" opacity="1.000000" stroke="none" 
	d="
M155.086060,240.317902 
	C155.649094,240.561371 156.132767,241.122437 156.272095,241.874115 
	C155.620728,241.588318 155.313736,241.111908 155.086060,240.317902 
z"/>
<path fill="#EFEBEB" opacity="1.000000" stroke="none" 
	d="
M219.331848,302.008118 
	C219.164108,301.474701 219.315964,300.836395 219.794373,300.092407 
	C219.964432,300.625580 219.807922,301.264404 219.331848,302.008118 
z"/>
<path fill="#EFEBEB" opacity="1.000000" stroke="none" 
	d="
M83.961197,140.270264 
	C84.213066,140.124786 84.536629,140.223328 84.862900,140.672668 
	C84.588036,140.853729 84.310471,140.684021 83.961197,140.270264 
z"/>
<path fill="#EFEBEB" opacity="1.000000" stroke="none" 
	d="
M80.978432,136.282578 
	C81.311493,136.112000 81.727638,136.212555 82.076797,136.714020 
	C81.693718,136.927856 81.377617,136.740784 80.978432,136.282578 
z"/>
<path fill="#000000" opacity="1.000000" stroke="none" 
	d="
M277.033325,261.117035 
	C262.610107,261.117035 248.186905,261.117035 233.365417,261.117035 
	C242.088715,236.615662 250.606125,212.692551 259.086243,188.874191 
	C267.694427,212.462280 276.251465,235.910156 284.891113,259.926483 
	C284.973785,260.494934 284.802307,260.950287 284.802307,260.950287 
	C284.802307,260.950287 284.372192,260.960358 283.936462,260.996399 
	C283.500763,261.032471 283.031189,261.117981 283.031189,261.117981 
	C282.570648,261.067200 282.110138,261.016388 280.916870,260.989746 
	C279.133881,261.048279 278.083588,261.082642 277.033325,261.117035 
z"/>
<path fill="#A0A7A1" opacity="1.000000" stroke="none" 
	d="
M277.283569,261.295929 
	C278.083588,261.082642 279.133881,261.048279 280.575500,261.065247 
	C279.822540,261.235962 278.678162,261.355408 277.283569,261.295929 
z"/>
<path fill="#A0A7A1" opacity="1.000000" stroke="none" 
	d="
M284.873779,260.840210 
	C284.802307,260.950287 284.973785,260.494934 285.058136,260.266724 
	C285.196991,260.311951 285.131256,260.542480 284.873779,260.840210 
z"/>
<path fill="#A0A7A1" opacity="1.000000" stroke="none" 
	d="
M283.147552,261.171204 
	C283.031189,261.117981 283.500763,261.032471 283.735840,261.073914 
	C283.970886,261.115387 283.622223,261.264160 283.622223,261.264160 
	C283.622223,261.264160 283.263916,261.224396 283.147552,261.171204 
z"/>
</svg>