<svg version="1.1" id="Layer_1" xmlns="http://www.w3.org/2000/svg" xmlns:xlink="http://www.w3.org/1999/xlink" x="0px" y="0px"
	 width="100%" viewBox="0 0 104 74" enable-background="new 0 0 104 74" xml:space="preserve">
<path fill="#FBFAFA" opacity="1.000000" stroke="none" 
	d="
M73.000000,75.000000 
	C48.666672,75.000000 24.833342,75.000000 1.000010,75.000000 
	C1.000006,50.333344 1.000006,25.666683 1.000003,1.000020 
	C35.666653,1.000013 70.333305,1.000013 104.999969,1.000006 
	C104.999977,25.666647 104.999977,50.333294 104.999985,74.999969 
	C94.500000,75.000000 84.000000,75.000000 73.000000,75.000000 
M56.500416,37.146229 
	C56.500416,37.146229 56.970257,37.058533 57.690437,37.228119 
	C62.311646,38.544067 65.433914,37.289150 66.526428,32.249241 
	C66.908699,30.485752 67.605583,28.790461 68.807007,27.136971 
	C69.835121,28.471300 70.863235,29.805630 71.937485,31.772997 
	C72.018639,32.188622 72.099800,32.604248 72.267662,33.662266 
	C73.151505,35.113224 74.035347,36.564182 74.981781,38.672310 
	C75.373070,39.452168 75.764351,40.232025 76.093971,41.659523 
	C76.031525,42.087517 75.969086,42.515511 75.029671,42.878136 
	C71.653908,43.456821 66.756752,40.692959 65.531372,47.455616 
	C65.240547,48.263367 64.949730,49.071114 64.155464,50.453205 
	C63.623325,51.849384 63.091183,53.245564 62.464142,54.890724 
	C68.180794,54.890724 73.085854,54.890724 78.733833,55.066250 
	C80.455742,56.097710 82.177643,57.129169 83.901970,58.797920 
	C84.291161,59.532299 84.680344,60.266678 85.003128,61.726624 
	C88.125618,68.779518 92.239319,70.737091 101.890480,69.436623 
	C100.603493,66.845703 99.383865,64.390404 98.023941,61.301880 
	C97.495880,60.149090 96.967827,58.996300 96.325439,57.168152 
	C95.606247,55.770813 94.887062,54.373478 94.095421,52.281254 
	C93.391380,50.856960 92.687340,49.432667 91.987358,47.419739 
	C91.683472,46.936203 91.379585,46.452667 91.022820,45.285145 
	C90.146576,43.468742 89.270332,41.652336 88.242516,39.156898 
	C87.753433,38.113914 87.264359,37.070927 86.677544,35.385674 
	C86.078705,34.262928 85.479874,33.140179 84.910088,31.332232 
	C84.219360,29.895203 83.528633,28.458176 82.746468,26.428865 
	C82.255684,25.577959 81.764908,24.727051 81.184486,23.229424 
	C80.813332,22.475332 80.442177,21.721241 79.978851,20.283108 
	C79.290070,18.861740 78.601280,17.440372 77.936119,15.425552 
	C77.633278,14.945738 77.330437,14.465923 76.975525,13.398721 
	C76.669388,12.922884 76.363251,12.447048 75.956886,11.251829 
	C72.117615,5.645930 67.966629,5.243711 62.923965,10.395745 
	C62.923965,10.395745 62.886654,10.799647 62.425045,11.209133 
	C62.272434,11.798184 62.119823,12.387236 61.484314,13.334626 
	C61.067047,14.238811 60.649780,15.142995 60.021317,16.648138 
	C59.729931,17.440733 59.438545,18.233328 58.799793,19.573883 
	C58.513847,20.374454 58.227901,21.175026 57.426632,22.447365 
	C56.286903,25.299065 55.147171,28.150763 53.500294,31.475657 
	C53.070602,33.918156 49.267754,37.879688 56.500416,37.146229 
M38.623302,40.646187 
	C41.138271,36.128956 43.653240,31.611723 46.603889,26.773590 
	C46.794952,26.276255 46.986015,25.778921 47.723495,24.862989 
	C48.909168,22.617792 50.094841,20.372595 51.766426,17.623926 
	C52.490166,15.994639 53.362816,14.411950 53.891743,12.721701 
	C54.335461,11.303746 54.939465,9.503067 54.414093,8.357046 
	C54.021351,7.500340 51.660595,6.717095 50.666935,7.117886 
	C47.515285,8.389096 44.593697,10.230695 41.111443,12.246272 
	C40.363533,13.734893 39.615620,15.223514 38.307808,17.125908 
	C37.150139,19.395258 35.992470,21.664608 34.326237,24.353537 
	C33.140148,26.519989 31.954058,28.686440 30.192883,30.597250 
	C28.878048,28.699923 27.563213,26.802595 26.087139,24.212788 
	C24.459990,21.446220 22.832842,18.679655 21.075672,15.212509 
	C18.851768,10.428355 15.971620,6.513106 9.228693,6.501449 
	C7.475875,6.608694 5.723057,6.715940 3.407876,6.945113 
	C3.551481,7.410184 3.695088,7.875257 3.968978,9.013657 
	C5.596584,11.764297 7.224191,14.514938 8.921946,17.959562 
	C10.553548,20.660669 12.185150,23.361774 13.964190,26.766171 
	C16.016161,30.513954 18.068130,34.261738 20.203348,38.689285 
	C21.573992,41.700794 22.944633,44.712303 24.175970,48.569256 
	C24.214138,52.714180 24.252304,56.859108 24.114113,61.882915 
	C24.114113,64.463577 24.114113,67.044235 24.114113,69.624893 
	C24.542988,70.005646 24.971861,70.386406 25.400736,70.767166 
	C28.177469,68.846085 30.954203,66.925003 34.305443,64.478790 
	C34.811939,61.660965 35.318439,58.843143 35.983936,55.146687 
	C36.023197,52.769123 36.062458,50.391560 36.462933,47.398869 
	C36.993904,45.267841 37.524872,43.136818 38.623302,40.646187 
M41.550323,58.519062 
	C39.953609,62.165115 38.356895,65.811165 36.653656,69.700470 
	C46.859943,70.267555 49.460938,69.093582 52.727371,62.801395 
	C53.842270,60.186302 54.957169,57.571213 56.621281,54.529083 
	C58.220940,50.852570 59.820595,47.176056 61.517471,43.276100 
	C51.253315,42.307209 46.571938,45.232586 43.220993,54.219532 
	C42.820145,55.480633 42.419296,56.741734 41.550323,58.519062 
z"/>
<path fill="#DF7F22" opacity="1.000000" stroke="none" 
	d="
M13.816753,26.062881 
	C12.185150,23.361774 10.553548,20.660669 9.071623,17.335030 
	C10.900811,17.408726 12.623042,18.020229 14.251393,18.822319 
	C18.273312,20.803432 22.252197,22.871904 26.248379,24.905266 
	C27.563213,26.802595 28.878048,28.699923 30.804073,30.894840 
	C31.945728,32.462414 32.476192,33.732395 32.977032,35.321918 
	C32.623970,36.429829 32.300537,37.218201 31.634089,37.969452 
	C28.847656,35.774612 26.596624,33.329044 23.910837,31.533960 
	C20.742556,29.416397 17.198111,27.861645 13.816753,26.062881 
z"/>
<path fill="#777776" opacity="1.000000" stroke="none" 
	d="
M43.731483,53.767998 
	C46.571938,45.232586 51.253315,42.307209 61.517471,43.276100 
	C59.820595,47.176056 58.220940,50.852570 55.891151,54.727795 
	C51.351173,54.540337 47.541328,54.154167 43.731483,53.767998 
z"/>
<path fill="#E48926" opacity="1.000000" stroke="none" 
	d="
M26.167759,24.559027 
	C22.252197,22.871904 18.273312,20.803432 14.251393,18.822319 
	C12.623042,18.020229 10.900811,17.408726 9.036549,16.988037 
	C7.224191,14.514938 5.596584,11.764297 3.958096,8.298863 
	C3.954889,7.330442 3.962564,7.076813 3.970239,6.823184 
	C5.723057,6.715940 7.475875,6.608694 9.617438,6.955925 
	C13.739353,10.244631 17.472523,13.078860 21.205692,15.913090 
	C22.832842,18.679655 24.459990,21.446220 26.167759,24.559027 
z"/>
<path fill="#696969" opacity="1.000000" stroke="none" 
	d="
M64.658905,49.878860 
	C64.949730,49.071114 65.240547,48.263367 66.155487,47.226135 
	C70.573532,47.515079 74.427994,47.767796 78.147018,48.615067 
	C83.538643,49.843388 88.832382,51.501400 94.167870,52.976139 
	C94.887062,54.373478 95.606247,55.770813 95.902298,57.548027 
	C91.619286,58.005482 87.759415,58.083057 83.899551,58.160629 
	C82.177643,57.129169 80.455742,56.097710 78.352905,54.603783 
	C77.264900,53.371445 76.670967,52.109829 75.831200,51.916615 
	C72.145905,51.068703 68.389519,50.529808 64.658905,49.878860 
z"/>
<path fill="#A4A4A4" opacity="1.000000" stroke="none" 
	d="
M71.891357,31.139957 
	C70.863235,29.805630 69.835121,28.471300 68.105980,26.941170 
	C60.719147,25.032396 59.847157,25.472115 56.671669,31.973812 
	C55.572266,31.633902 54.789852,31.318182 54.007439,31.002460 
	C55.147171,28.150763 56.286903,25.299065 58.115662,22.219524 
	C60.116646,22.129271 61.456676,22.140755 62.735859,22.425554 
	C69.445030,23.919304 76.138786,25.482246 82.837906,27.021147 
	C83.528633,28.458176 84.219360,29.895203 84.497498,31.668541 
	C82.328056,31.608597 80.584785,30.977205 78.810951,30.874725 
	C76.517181,30.742205 74.199020,31.032001 71.891357,31.139957 
z"/>
<path fill="#BF4614" opacity="1.000000" stroke="none" 
	d="
M35.824940,56.025318 
	C35.318439,58.843143 34.811939,61.660965 33.680794,64.691818 
	C30.134251,63.604580 27.212360,62.304306 24.290470,61.004032 
	C24.252304,56.859108 24.214138,52.714180 24.637688,48.239853 
	C26.543701,48.917706 28.025900,49.875374 29.423525,50.943684 
	C31.587652,52.597889 33.694057,54.327618 35.824940,56.025318 
z"/>
<path fill="#282828" opacity="1.000000" stroke="none" 
	d="
M52.081310,63.154633 
	C49.460938,69.093582 46.859943,70.267555 36.653656,69.700470 
	C38.356895,65.811165 39.953609,62.165115 42.152821,58.307335 
	C45.863983,59.781948 48.972645,61.468288 52.081310,63.154633 
z"/>
<path fill="#CF6324" opacity="1.000000" stroke="none" 
	d="
M35.904438,55.586002 
	C33.694057,54.327618 31.587652,52.597889 29.423525,50.943684 
	C28.025900,49.875374 26.543701,48.917706 24.707340,47.817131 
	C22.944633,44.712303 21.573992,41.700794 20.553240,38.346336 
	C22.788103,38.688763 24.721315,39.267143 26.544662,40.089207 
	C28.418903,40.934219 30.185900,42.017097 32.146866,43.290745 
	C33.563175,45.061737 34.832451,46.537865 36.101723,48.013996 
	C36.062458,50.391560 36.023197,52.769123 35.904438,55.586002 
z"/>
<path fill="#D97320" opacity="1.000000" stroke="none" 
	d="
M31.999828,42.995884 
	C30.185900,42.017097 28.418903,40.934219 26.544662,40.089207 
	C24.721315,39.267143 22.788103,38.688763 20.511616,38.006454 
	C18.068130,34.261738 16.016161,30.513954 13.890472,26.414526 
	C17.198111,27.861645 20.742556,29.416397 23.910837,31.533960 
	C26.596624,33.329044 28.847656,35.774612 31.642775,38.385033 
	C31.996262,40.223782 31.998045,41.609833 31.999828,42.995884 
z"/>
<path fill="#575757" opacity="1.000000" stroke="none" 
	d="
M98.164238,61.935101 
	C99.383865,64.390404 100.603493,66.845703 101.890480,69.436623 
	C92.239319,70.737091 88.125618,68.779518 85.485680,61.363831 
	C90.033569,61.312393 94.098900,61.623749 98.164238,61.935101 
z"/>
<path fill="#737372" opacity="1.000000" stroke="none" 
	d="
M94.131645,52.628696 
	C88.832382,51.501400 83.538643,49.843388 78.147018,48.615067 
	C74.427994,47.767796 70.573532,47.515079 66.382690,46.995586 
	C66.756752,40.692959 71.653908,43.456821 75.756348,43.114372 
	C81.159904,46.533436 85.787880,49.878998 91.983299,48.008377 
	C92.687340,49.432667 93.391380,50.856960 94.131645,52.628696 
z"/>
<path fill="#959695" opacity="1.000000" stroke="none" 
	d="
M56.988663,31.998003 
	C59.847157,25.472115 60.719147,25.032396 67.781876,26.904697 
	C67.605583,28.790461 66.908699,30.485752 66.526428,32.249241 
	C65.433914,37.289150 62.311646,38.544067 57.449715,36.865997 
	C57.141056,35.668674 57.073116,34.833469 57.005196,33.664886 
	C56.999699,32.887005 56.994183,32.442505 56.988663,31.998003 
z"/>
<path fill="#F6C33F" opacity="1.000000" stroke="none" 
	d="
M41.583168,11.851780 
	C44.593697,10.230695 47.515285,8.389096 50.666935,7.117886 
	C51.660595,6.717095 54.021351,7.500340 54.414093,8.357046 
	C54.939465,9.503067 54.335461,11.303746 53.891743,12.721701 
	C53.362816,14.411950 52.490166,15.994639 51.195045,17.726759 
	C47.610165,15.836987 44.596668,13.844383 41.583168,11.851780 
z"/>
<path fill="#F3B73C" opacity="1.000000" stroke="none" 
	d="
M41.347305,12.049026 
	C44.596668,13.844383 47.610165,15.836987 50.952091,17.978495 
	C50.094841,20.372595 48.909168,22.617792 47.287331,24.750200 
	C44.190014,21.995651 41.528858,19.353893 38.867706,16.712133 
	C39.615620,15.223514 40.363533,13.734893 41.347305,12.049026 
z"/>
<path fill="#EFAA38" opacity="1.000000" stroke="none" 
	d="
M38.587757,16.919022 
	C41.528858,19.353893 44.190014,21.995651 47.014122,24.959499 
	C46.986015,25.778921 46.794952,26.276255 46.012871,26.907116 
	C43.614616,27.693558 41.807384,28.346472 39.855850,28.704388 
	C38.085964,26.917582 36.460381,25.425772 34.834801,23.933960 
	C35.992470,21.664608 37.150139,19.395258 38.587757,16.919022 
z"/>
<path fill="#B6B6B6" opacity="1.000000" stroke="none" 
	d="
M80.071022,20.967148 
	C80.442177,21.721241 80.813332,22.475332 80.787750,23.591354 
	C77.856941,23.439611 75.307190,22.992270 72.792229,22.397785 
	C68.232933,21.320072 63.694370,20.154703 59.147156,19.025923 
	C59.438545,18.233328 59.729931,17.440733 60.502804,16.345043 
	C67.346535,17.683683 73.708778,19.325417 80.071022,20.967148 
z"/>
<path fill="#ACACAC" opacity="1.000000" stroke="none" 
	d="
M58.973473,19.299904 
	C63.694370,20.154703 68.232933,21.320072 72.792229,22.397785 
	C75.307190,22.992270 77.856941,23.439611 80.832565,23.914715 
	C81.764908,24.727051 82.255684,25.577959 82.792191,26.725006 
	C76.138786,25.482246 69.445030,23.919304 62.735859,22.425554 
	C61.456676,22.140755 60.116646,22.129271 58.373322,21.983641 
	C58.227901,21.175026 58.513847,20.374454 58.973473,19.299904 
z"/>
<path fill="#3C3B3B" opacity="1.000000" stroke="none" 
	d="
M52.404343,62.978012 
	C48.972645,61.468288 45.863983,59.781948 42.386883,58.049217 
	C42.419296,56.741734 42.820145,55.480633 43.476238,53.993767 
	C47.541328,54.154167 51.351173,54.540337 55.616547,54.941315 
	C54.957169,57.571213 53.842270,60.186302 52.404343,62.978012 
z"/>
<path fill="#E9AD5E" opacity="1.000000" stroke="none" 
	d="
M40.000153,28.999388 
	C41.807384,28.346472 43.614616,27.693558 45.795029,27.067566 
	C43.653240,31.611723 41.138271,36.128956 38.051121,40.613167 
	C36.984535,38.718731 36.490128,36.857311 36.255005,34.792267 
	C37.676243,32.725559 38.838200,30.862474 40.000153,28.999388 
z"/>
<path fill="#5F5F5F" opacity="1.000000" stroke="none" 
	d="
M64.407181,50.166031 
	C68.389519,50.529808 72.145905,51.068703 75.831200,51.916615 
	C76.670967,52.109829 77.264900,53.371445 77.981453,54.516022 
	C73.085854,54.890724 68.180794,54.890724 62.464142,54.890724 
	C63.091183,53.245564 63.623325,51.849384 64.407181,50.166031 
z"/>
<path fill="#E79939" opacity="1.000000" stroke="none" 
	d="
M39.855850,28.704388 
	C38.838200,30.862474 37.676243,32.725559 36.006378,34.890640 
	C34.667866,35.129219 33.837261,35.065800 33.006660,35.002377 
	C32.476192,33.732395 31.945728,32.462414 31.091614,31.022661 
	C31.954058,28.686440 33.140148,26.519989 34.580521,24.143749 
	C36.460381,25.425772 38.085964,26.917582 39.855850,28.704388 
z"/>
<path fill="#7B7B7B" opacity="1.000000" stroke="none" 
	d="
M91.985329,47.714058 
	C85.787880,49.878998 81.159904,46.533436 76.194839,43.147057 
	C75.969086,42.515511 76.031525,42.087517 76.500183,41.343262 
	C81.629494,42.674381 86.352600,44.321754 91.075699,45.969131 
	C91.379585,46.452667 91.683472,46.936203 91.985329,47.714058 
z"/>
<path fill="#868686" opacity="1.000000" stroke="none" 
	d="
M91.049255,45.627136 
	C86.352600,44.321754 81.629494,42.674381 76.531021,41.019444 
	C75.764351,40.232025 75.373070,39.452168 75.384315,38.339264 
	C79.989265,38.616119 84.191673,39.226025 88.394089,39.835934 
	C89.270332,41.652336 90.146576,43.468742 91.049255,45.627136 
z"/>
<path fill="#B3371A" opacity="1.000000" stroke="none" 
	d="
M24.202291,61.443474 
	C27.212360,62.304306 30.134251,63.604580 33.393539,64.954391 
	C30.954203,66.925003 28.177469,68.846085 25.400736,70.767166 
	C24.971861,70.386406 24.542988,70.005646 24.114113,69.624893 
	C24.114113,67.044235 24.114113,64.463577 24.202291,61.443474 
z"/>
<path fill="#90908F" opacity="1.000000" stroke="none" 
	d="
M88.318298,39.496414 
	C84.191673,39.226025 79.989265,38.616119 75.353020,38.010677 
	C74.035347,36.564182 73.151505,35.113224 72.614502,33.335754 
	C77.565987,34.015480 82.170631,35.021709 86.775284,36.027939 
	C87.264359,37.070927 87.753433,38.113914 88.318298,39.496414 
z"/>
<path fill="#DC8744" opacity="1.000000" stroke="none" 
	d="
M32.977032,35.321918 
	C33.837261,35.065800 34.667866,35.129219 35.747093,35.094265 
	C36.490128,36.857311 36.984535,38.718731 37.767391,40.792969 
	C37.524872,43.136818 36.993904,45.267841 36.282326,47.706432 
	C34.832451,46.537865 33.563175,45.061737 32.146866,43.290745 
	C31.998045,41.609833 31.996262,40.223782 31.985792,38.422150 
	C32.300537,37.218201 32.623970,36.429829 32.977032,35.321918 
z"/>
<path fill="#C0C0C0" opacity="1.000000" stroke="none" 
	d="
M80.024933,20.625130 
	C73.708778,19.325417 67.346535,17.683683 60.608402,16.044563 
	C60.649780,15.142995 61.067047,14.238811 62.056587,13.327330 
	C67.723404,14.219690 72.817955,15.119348 77.912498,16.019005 
	C78.601280,17.440372 79.290070,18.861740 80.024933,20.625130 
z"/>
<path fill="#999999" opacity="1.000000" stroke="none" 
	d="
M86.726410,35.706806 
	C82.170631,35.021709 77.565987,34.015480 72.571144,33.014561 
	C72.099800,32.604248 72.018639,32.188622 71.914421,31.456478 
	C74.199020,31.032001 76.517181,30.742205 78.810951,30.874725 
	C80.584785,30.977205 82.328056,31.608597 84.482979,32.011139 
	C85.479874,33.140179 86.078705,34.262928 86.726410,35.706806 
z"/>
<path fill="#E99834" opacity="1.000000" stroke="none" 
	d="
M21.140682,15.562799 
	C17.472523,13.078860 13.739353,10.244631 9.965479,7.100575 
	C15.971620,6.513106 18.851768,10.428355 21.140682,15.562799 
z"/>
<path fill="#5C5C5C" opacity="1.000000" stroke="none" 
	d="
M98.094086,61.618492 
	C94.098900,61.623749 90.033569,61.312393 85.518875,61.001049 
	C84.680344,60.266678 84.291161,59.532299 83.900757,58.479279 
	C87.759415,58.083057 91.619286,58.005482 95.959457,57.885704 
	C96.967827,58.996300 97.495880,60.149090 98.094086,61.618492 
z"/>
<path fill="#DCDBDC" opacity="1.000000" stroke="none" 
	d="
M62.988579,9.995237 
	C67.966629,5.243711 72.117615,5.645930 75.601318,11.573787 
	C71.160027,11.262241 67.074303,10.628739 62.988579,9.995237 
z"/>
<path fill="#C9C9C9" opacity="1.000000" stroke="none" 
	d="
M77.924309,15.722279 
	C72.817955,15.119348 67.723404,14.219690 62.298035,13.148161 
	C62.119823,12.387236 62.272434,11.798184 62.885818,11.330717 
	C67.906921,12.296903 72.467262,13.141506 77.027596,13.986109 
	C77.330437,14.465923 77.633278,14.945738 77.924309,15.722279 
z"/>
<path fill="#D2D2D2" opacity="1.000000" stroke="none" 
	d="
M77.001556,13.692415 
	C72.467262,13.141506 67.906921,12.296903 63.116623,11.125974 
	C62.886654,10.799647 62.923965,10.395745 62.956272,10.195492 
	C67.074303,10.628739 71.160027,11.262241 75.651428,11.933477 
	C76.363251,12.447048 76.669388,12.922884 77.001556,13.692415 
z"/>
<path fill="#A8A8A7" opacity="1.000000" stroke="none" 
	d="
M56.671673,31.973812 
	C56.994183,32.442505 56.999699,32.887005 56.740593,33.879574 
	C56.326111,35.313454 56.176247,36.199261 56.026382,37.085072 
	C49.267754,37.879688 53.070602,33.918156 53.753868,31.239059 
	C54.789852,31.318182 55.572266,31.633902 56.671673,31.973812 
z"/>
<path fill="#A4A4A4" opacity="1.000000" stroke="none" 
	d="
M56.263397,37.115650 
	C56.176247,36.199261 56.326111,35.313454 56.740574,34.212952 
	C57.073116,34.833469 57.141056,35.668674 57.089626,36.781204 
	C56.970257,37.058533 56.500416,37.146229 56.263397,37.115650 
z"/>
<path fill="#E99834" opacity="1.000000" stroke="none" 
	d="
M3.689057,6.884149 
	C3.962564,7.076813 3.954889,7.330442 3.892953,7.962199 
	C3.695088,7.875257 3.551481,7.410184 3.689057,6.884149 
z"/>
</svg>